<svg viewBox="0 0 269 48" width="164" xmlns="http://www.w3.org/2000/svg"><g fill="none" aria-hidden="true"><path d="M105.4 11.4c1.8 2.2 2.6 5.1 2.6 8.6a15 15 0 01-2.6 9 8.3 8.3 0 01-7.2 3.6c-1.9 0-3.5-.4-4.7-1.2-.7-.5-1.5-1.3-2.3-2.4v3h-6V.4h6.1v11.3a8.8 8.8 0 012.6-2.5 7.7 7.7 0 014.2-1.1c3.1 0 5.5 1.1 7.3 3.3zm-5.2 14.3c.9-1.3 1.3-3 1.3-5 0-1.7-.2-3-.6-4.1a4.4 4.4 0 00-4.5-3.1c-2.2 0-3.8 1-4.6 3-.4 1.1-.6 2.5-.6 4.2 0 2 .4 3.7 1.3 5a4.7 4.7 0 007.7 0zm16.5-17.1v14.1c0 1.3.2 2.3.5 3 .6 1.2 1.6 1.8 3.3 1.8 2.1 0 3.5-.8 4.3-2.5a9 9 0 00.6-3.6V8.6h6.2V32h-6v-3.3l-.4.6c-.2.4-.5.7-.8.9a10 10 0 01-2.8 1.8c-.9.4-1.9.5-3.1.5-3.5 0-5.8-1.2-7-3.7a14 14 0 01-1-6.1V8.6h6.2zm25.4 15.9c.1 1.1.4 1.9.8 2.3.8.8 2.2 1.2 4.2 1.2 1.2 0 2.2-.2 2.9-.5.7-.4 1.1-.9 1.1-1.6 0-.7-.3-1.2-.9-1.6-.6-.4-2.7-1-6.4-1.8-2.7-.7-4.5-1.5-5.6-2.5-1.1-1-1.6-2.4-1.6-4.2 0-2.2.8-4 2.6-5.6 1.7-1.6 4.1-2.3 7.2-2.3 2.9 0 5.3.6 7.2 1.8 1.8 1.2 2.9 3.2 3.2 6h-6.1c-.1-.8-.3-1.4-.7-1.9-.7-.8-1.8-1.2-3.4-1.2-1.3 0-2.3.2-2.9.6-.6.4-.9.9-.9 1.5 0 .7.3 1.2.9 1.5.6.3 2.7.9 6.4 1.7 2.4.6 4.3 1.4 5.5 2.6a5.9 5.9 0 011.8 4.4c0 2.3-.9 4.2-2.6 5.7-1.7 1.5-4.4 2.2-8 2.2-3.7 0-6.4-.8-8.2-2.3a7.3 7.3 0 01-2.6-5.9h6.1v-.1zm25.6-18.7h-6.2V.1h6.2v5.7zm-6.3 2.8h6.2V32h-6.2V8.6zm30.8 1.3c1.5 1.3 2.3 3.4 2.3 6.3V32h-6.3V17.8c0-1.2-.2-2.2-.5-2.8-.6-1.2-1.7-1.8-3.4-1.8-2.1 0-3.5.9-4.2 2.6a9 9 0 00-.6 3.6V32h-6.1V8.6h5.9V12c.8-1.2 1.5-2.1 2.2-2.6a8 8 0 014.8-1.4c2.4 0 4.4.7 5.9 1.9zm22.6-.8a9 9 0 014 3.5c1 1.4 1.6 3 1.9 4.8.2 1.1.2 2.6.2 4.6h-17.1c.1 2.3.9 4 2.4 4.9.9.6 2.1.9 3.4.9 1.4 0 2.5-.4 3.4-1.1.5-.4.9-.9 1.3-1.6h6.3a7.4 7.4 0 01-2.3 4.2c-2.1 2.3-5 3.4-8.8 3.4-3.1 0-5.9-1-8.2-2.9-2.4-1.9-3.6-5-3.6-9.4 0-4.1 1.1-7.2 3.2-9.3 2.2-2.2 4.9-3.2 8.4-3.2 2 .1 3.9.4 5.5 1.2zm-9.1 5.2a6 6 0 00-1.6 3.6h10.5a5.3 5.3 0 00-1.6-3.7 5.5 5.5 0 00-3.6-1.3c-1.7.1-2.9.6-3.7 1.4zm23.4 10.2c.1 1.1.4 1.9.8 2.3.8.8 2.2 1.2 4.2 1.2 1.2 0 2.2-.2 2.9-.5.7-.4 1.1-.9 1.1-1.6 0-.7-.3-1.2-.9-1.6-.6-.4-2.7-1-6.4-1.8-2.7-.7-4.5-1.5-5.6-2.5-1.1-1-1.6-2.4-1.6-4.2 0-2.2.8-4 2.6-5.6 1.7-1.6 4.1-2.3 7.2-2.3 2.9 0 5.3.6 7.2 1.8 1.8 1.2 2.9 3.2 3.2 6h-6.1c-.1-.8-.3-1.4-.7-1.9-.7-.8-1.8-1.2-3.4-1.2-1.3 0-2.3.2-2.9.6-.6.4-.9.9-.9 1.5 0 .7.3 1.2.9 1.5.6.3 2.7.9 6.4 1.7 2.4.6 4.3 1.4 5.5 2.6a5.9 5.9 0 011.8 4.4c0 2.3-.9 4.2-2.6 5.7-1.7 1.5-4.4 2.2-8 2.2-3.7 0-6.4-.8-8.2-2.3a7.3 7.3 0 01-2.6-5.9h6.1v-.1zm24.5 0c.1 1.1.4 1.9.8 2.3.8.8 2.2 1.2 4.2 1.2 1.2 0 2.2-.2 2.9-.5.7-.4 1.1-.9 1.1-1.6 0-.7-.3-1.2-.9-1.6-.6-.4-2.7-1-6.4-1.8-2.7-.7-4.5-1.5-5.6-2.5-1.1-1-1.6-2.4-1.6-4.2 0-2.2.8-4 2.6-5.6 1.7-1.6 4.1-2.3 7.2-2.3 2.9 0 5.3.6 7.2 1.8 1.8 1.2 2.9 3.2 3.2 6H262c-.1-.8-.3-1.4-.7-1.9-.7-.8-1.8-1.2-3.4-1.2-1.3 0-2.3.2-2.9.6-.6.4-.9.9-.9 1.5 0 .7.3 1.2.9 1.5.6.3 2.7.9 6.4 1.7 2.4.6 4.3 1.4 5.5 2.6a5.9 5.9 0 011.8 4.4c0 2.3-.9 4.2-2.6 5.7-1.7 1.5-4.4 2.2-8 2.2-3.7 0-6.4-.8-8.2-2.3a7.3 7.3 0 01-2.6-5.9h6.3v-.1z" fill="currentColor"></path><path fill="#00CDBE" d="M22.1 30.6L18 15.1h-.1L14 30.6H7.4L0 7.6h6.7L11 23.2h.1L15 7.6h6.2l4 15.6h.1l4.3-15.6H36l-7.3 23h-6.6zm23-23v3.2h.1c.9-1.2 1.9-2.1 3.1-2.8a9.5 9.5 0 018.2-.1c1.2.6 2.2 1.6 2.8 3 .7-1 1.6-1.9 2.8-2.7A7.5 7.5 0 0166.4 7c1.2 0 2.4.2 3.5.5a7 7 0 012.7 1.4 6 6 0 011.8 2.6c.4 1.1.6 2.4.6 3.9V31h-6.5V17.8l-.1-2.2c-.1-.7-.2-1.3-.5-1.8s-.7-.9-1.2-1.2c-.5-.3-1.3-.5-2.2-.5-.9 0-1.6.2-2.2.5A3 3 0 0061 14a6 6 0 00-.6 1.9 15 15 0 00-.2 2.1v13h-6.5V15.8c0-.7-.2-1.3-.4-1.9a3 3 0 00-1.1-1.4c-.5-.3-1.3-.5-2.3-.5l-1.2.2c-.5.1-1 .4-1.5.8a4 4 0 00-1.2 1.6 7 7 0 00-.5 2.8V31H39V7.6h6.1z"></path><path d="M37.5 40.9c13.1 0 19.7-4.9 19.7-4.9l2.8 3.8S50.2 48 37.5 48 15 39.8 15 39.8l2.8-3.8s6.6 4.9 19.7 4.9" fill="currentColor"></path></g></svg>